<svg width="42" height="31" viewBox="0 0 42 31" fill="none" xmlns="http://www.w3.org/2000/svg">
<path d="M37.2389 13.2864H4.76105C2.68388 13.2864 1 14.9744 1 17.0566V25.7828C1 27.865 2.68388 29.553 4.76105 29.553H37.2389C39.3161 29.553 41 27.865 41 25.7828V17.0566C41 14.9744 39.3161 13.2864 37.2389 13.2864Z" stroke="#1301B9" stroke-width="1.5" stroke-miterlimit="10"/>
<path d="M1 18.1909H40.9961" stroke="#1301B9" stroke-width="1.5" stroke-miterlimit="10"/>
<path d="M37.235 13.302V5.95067C37.235 4.65088 36.7199 3.40433 35.8031 2.48524C34.8862 1.56615 33.6427 1.04981 32.346 1.04981H9.65397C9.01161 1.04929 8.37544 1.17567 7.78183 1.42173C7.18822 1.66779 6.6488 2.0287 6.1944 2.48384C5.74 2.93898 5.37953 3.47943 5.13359 4.07428C4.88765 4.66914 4.76106 5.30675 4.76106 5.95067V13.302" stroke="#1301B9" stroke-width="1.5" stroke-miterlimit="10"/>
<path d="M19.7345 6.77402C19.5565 6.58614 19.3175 6.4679 19.0605 6.44048C18.8034 6.41305 18.545 6.47821 18.3315 6.62432C17.8561 6.95281 17.2936 7.13118 16.7162 7.13647H10.6365C10.0591 7.13118 9.49657 6.95281 9.02121 6.62432C8.80857 6.47211 8.54841 6.40164 8.28823 6.42579C8.02806 6.44994 7.78522 6.56709 7.60407 6.75585C7.42292 6.94461 7.31554 7.19238 7.30154 7.45393C7.28753 7.71548 7.36784 7.97335 7.5278 8.18046L7.69679 8.4129C8.05954 8.91178 8.25495 9.51322 8.25485 10.1306V13.3019H19.0939V10.1503C19.0938 9.53292 19.2892 8.93148 19.652 8.4326L19.821 8.20016C19.98 7.99174 20.0588 7.73286 20.0429 7.47094C20.0271 7.20901 19.9176 6.9616 19.7345 6.77402V6.77402Z" stroke="#1301B9" stroke-width="1.5" stroke-miterlimit="10"/>
<path d="M34.3818 6.77402C34.2035 6.58513 33.9638 6.46625 33.7059 6.43881C33.448 6.41136 33.1887 6.47715 32.9749 6.62432C32.5007 6.95228 31.9396 7.13063 31.3635 7.13647H25.2838C24.7064 7.13118 24.1439 6.95281 23.6685 6.62432C23.4559 6.47211 23.1957 6.40164 22.9355 6.42579C22.6753 6.44994 22.4325 6.56709 22.2514 6.75585C22.0702 6.94461 21.9628 7.19238 21.9488 7.45393C21.9348 7.71548 22.0151 7.97335 22.1751 8.18046L22.3441 8.4129C22.7068 8.91178 22.9022 9.51322 22.9021 10.1306V13.3019H33.7412V10.1503C33.7406 9.53222 33.9376 8.93024 34.3032 8.4326L34.4683 8.20016C34.6289 7.99239 34.7087 7.73316 34.6928 7.47078C34.6769 7.2084 34.5664 6.96076 34.3818 6.77402V6.77402Z" stroke="#1301B9" stroke-width="1.5" stroke-miterlimit="10"/>
</svg>
