<svg width="42" height="29" viewBox="0 0 42 29" fill="none" xmlns="http://www.w3.org/2000/svg">
<path d="M29.6848 18.1179L20.8114 26.4373C20.2491 26.9579 19.5207 27.2627 18.7551 27.2979C17.9895 27.3332 17.2361 27.0965 16.6283 26.6298C16.0205 26.1631 15.5976 25.4965 15.4344 24.748C15.2712 23.9996 15.3783 23.2175 15.7367 22.5404L17.8436 18.6468C17.8732 18.5923 17.8881 18.531 17.8869 18.4689C17.8857 18.4069 17.8683 18.3462 17.8366 18.2929C17.8048 18.2396 17.7598 18.1954 17.7058 18.1647C17.6518 18.134 17.5908 18.1179 17.5288 18.1179H8.21663C7.25669 18.1177 6.32113 17.8156 5.54256 17.2544C4.76398 16.6932 4.18189 15.9013 3.87879 14.9909L1.05501 6.49735C1.00099 6.33403 0.986489 6.16024 1.01269 5.99023C1.03889 5.82023 1.10504 5.65885 1.20572 5.51934C1.3064 5.37984 1.43874 5.26618 1.59189 5.18769C1.74503 5.1092 1.91461 5.06811 2.08671 5.06781H2.39488C4.4186 5.06776 6.36983 5.82085 7.86827 7.18032L10.548 9.60419C10.9737 9.99237 11.5293 10.2073 12.1056 10.2068H17.5254C17.5875 10.2068 17.6485 10.1906 17.7025 10.1599C17.7564 10.1292 17.8015 10.0851 17.8332 10.0317C17.865 9.97841 17.8823 9.91776 17.8835 9.85572C17.8848 9.79368 17.8699 9.73239 17.8403 9.67784L15.7367 5.7809C15.3721 5.10348 15.2602 4.31862 15.421 3.56638C15.5818 2.81414 16.0047 2.14348 16.6145 1.67408C17.2242 1.20467 17.9809 0.967072 18.7497 1.00368C19.5184 1.04028 20.2492 1.34871 20.8114 1.87393L29.5809 10.1097C29.6487 10.1715 29.737 10.2061 29.8288 10.2068H37.0407C38.0902 10.2068 39.0967 10.6233 39.8392 11.3647C40.5816 12.1061 40.9991 13.1117 41 14.1607C41 14.6803 40.8976 15.1949 40.6986 15.675C40.4996 16.1551 40.208 16.5914 39.8403 16.9588C39.4727 17.3263 39.0362 17.6178 38.5558 17.8166C38.0755 18.0155 37.5606 18.1179 37.0407 18.1179H29.6714H29.6848Z" stroke="#0A00B4" stroke-width="1.5"/>
</svg>
