<svg width="40" height="40" viewBox="0 0 40 40" fill="none" xmlns="http://www.w3.org/2000/svg">
<g clip-path="url(#clip0_24_17)">
<path d="M38.5843 16.1537C37.8238 12.4776 35.9902 9.10953 33.3155 6.47552C30.6408 3.84151 27.245 2.05984 23.5576 1.35581C19.8703 0.651792 16.057 1.05705 12.6 2.52033C9.14293 3.98361 6.19747 6.43919 4.13608 9.57652C2.07469 12.7139 0.98996 16.392 1.01906 20.1459C1.04817 23.8997 2.1898 27.5606 4.29959 30.6656C6.40938 33.7706 9.39255 36.1802 12.8719 37.5897C16.3511 38.9992 20.1703 39.3453 23.8463 38.5842C28.7749 37.5637 33.0964 34.6274 35.8602 30.4209C38.6241 26.2145 39.6039 21.0825 38.5843 16.1537V16.1537Z" stroke="#A07300" stroke-width="2.5" stroke-miterlimit="10"/>
<path d="M28.6188 3.39551C28.6188 3.39551 24.9634 6.8906 27.098 9.05844C29.2327 11.2263 30.0954 13.0955 30.383 14.0743C30.6705 15.0532 31.1904 18.0893 32.407 19.317C34.2265 21.153 38.7833 20.2295 38.7833 20.2295" stroke="#A07300" stroke-width="2.5" stroke-miterlimit="10"/>
<path d="M22.2702 39.0265C23.7799 33.6788 15.3077 34.5968 16.5907 26.9098C16.9723 24.5761 14.6993 22.7013 11.5748 22.7013C7.60408 22.7013 3.50067 18.9132 2.90894 11.6133" stroke="#A07300" stroke-width="2.5" stroke-miterlimit="10"/>
<path d="M27.3635 37.9149C27.3635 37.9149 26.9875 34.9286 27.9165 33.3912C28.8456 31.8538 30.1286 29.5201 30.0567 26.39C29.9848 23.2599 23.9735 22.6571 21.4075 21.717C18.8415 20.7768 15.5455 20.1962 15.4846 17.4808C15.4238 14.7655 20.8711 14.4779 20.8711 11.3146C20.8711 8.72098 18.0009 7.76978 14.0744 7.76978C9.25761 7.76978 10.4632 3.70508 10.4632 3.70508" stroke="#A07300" stroke-width="2.5" stroke-miterlimit="10"/>
</g>
<defs>
<clipPath id="clip0_24_17">
<rect width="40" height="40" fill="white"/>
</clipPath>
</defs>
</svg>
